<svg xmlns="http://www.w3.org/2000/svg" width="20" height="24" viewBox="0 0 20 24">
  <path id="iconmonstr-trash-can-30" d="M19,24H5a2,2,0,0,1-2-2V5H2V3H8V1.5A1.5,1.5,0,0,1,9.5,0h5A1.5,1.5,0,0,1,16,1.5V3h6V5H21V22A2,2,0,0,1,19,24ZM19,5H5V21.5a.5.5,0,0,0,.5.5h13a.5.5,0,0,0,.5-.5Zm-7,7.586,3.293-3.293,1.414,1.414L13.414,14l3.293,3.293-1.414,1.414L12,15.414,8.707,18.707,7.293,17.293,10.586,14,7.293,10.707,8.707,9.293,12,12.586ZM14,2H10V3h4Z" transform="translate(-2)" fill="#707070" fill-rule="evenodd"/>
</svg>
