<svg xmlns="http://www.w3.org/2000/svg" width="477.18" height="175.081" viewBox="0 0 477.18 175.081">
  <g id="Gruppe_1" data-name="Gruppe 1" transform="translate(-168 -176.459)">
    <g id="Pfad_1" data-name="Pfad 1" transform="translate(173 214)" fill="none" stroke-linecap="round">
      <path d="M0,0,71-30V100L0,130Z" stroke="none"/>
      <path d="M 71 -30 L 0 0 L 0 130 L 71 100 L 71 -30 M 76 -37.54069519042969 L 76 -30 L 76 100 L 76 103.3153533935547 L 72.94607543945312 104.6057281494141 L 1.946075439453125 134.6057281494141 L -5 137.5406951904297 L -5 130 L -5 0 L -5 -3.315353393554688 L -1.946075439453125 -4.605728149414062 L 69.05392456054688 -34.60572814941406 L 76 -37.54069519042969 Z" stroke="none" fill="#707070"/>
    </g>
    <g id="Rechteck_1" data-name="Rechteck 1" transform="translate(173 216)" fill="#fff" stroke="#707070" stroke-linecap="round" stroke-linejoin="round" stroke-width="5">
      <rect width="101" height="130" stroke="none"/>
      <rect x="-2.5" y="-2.5" width="106" height="135" fill="none"/>
    </g>
    <path id="Pfad_2" data-name="Pfad 2" d="M37.08,0,22.44-41.88H16.02L1.38,0h5.1l4.2-12.36H27.6L31.8,0ZM26.34-16.8H11.88l7.08-20.4h.3ZM69.9,0V-4.44H52.08V-41.88H47.04V0Zm33.06,0V-4.44H85.14V-41.88H80.1V0ZM21.24,60.72C32.04,60.72,39,53.1,39,39.06S32.04,17.4,21.24,17.4,3.48,25.02,3.48,39.06,10.44,60.72,21.24,60.72Zm0-4.5c-7.26,0-12.36-5.4-12.36-13.68V35.58c0-8.28,5.1-13.68,12.36-13.68S33.6,27.3,33.6,35.58v6.96C33.6,50.82,28.5,56.22,21.24,56.22Zm44.58,4.5a15.416,15.416,0,0,0,14.7-9.54L76.5,48.66a10.87,10.87,0,0,1-10.68,7.56c-7.2,0-11.46-5.22-11.46-13.8V36.18c0-8.58,4.26-14.28,11.46-14.28a10.521,10.521,0,0,1,10.32,7.14l4.08-2.46c-2.64-5.82-7.44-9.18-14.4-9.18-10.56,0-16.86,7.92-16.86,21.9S55.26,60.72,65.82,60.72Zm39.48,0A15.415,15.415,0,0,0,120,51.18l-4.02-2.52a10.87,10.87,0,0,1-10.68,7.56c-7.2,0-11.46-5.22-11.46-13.8V36.18c0-8.58,4.26-14.28,11.46-14.28a10.521,10.521,0,0,1,10.32,7.14l4.08-2.46c-2.64-5.82-7.44-9.18-14.4-9.18-10.56,0-16.86,7.92-16.86,21.9S94.74,60.72,105.3,60.72Zm57-.72L147.66,18.12h-6.42L126.6,60h5.1l4.2-12.36h16.92L157.02,60ZM151.56,43.2H137.1l7.08-20.4h.3Zm32.46,17.52c9,0,14.4-4.92,14.4-12.6,0-6.24-3.54-9.84-11.7-11.7l-3.42-.78c-5.28-1.2-7.86-3-7.86-6.96,0-4.5,3.3-6.84,8.64-6.84A11.817,11.817,0,0,1,194.4,27l3.78-2.76c-3.12-4.44-7.56-6.84-13.86-6.84-8.22,0-13.86,4.02-13.86,11.46,0,6.42,4.2,9.78,11.82,11.52l3.42.78c5.52,1.26,7.74,3.24,7.74,7.2,0,4.8-3.24,7.92-9.24,7.92-4.86,0-8.34-2.1-11.28-6L169.2,53.4A17.348,17.348,0,0,0,184.02,60.72ZM224.94,60V55.8h-5.88V22.32h5.88v-4.2h-16.8v4.2h5.88V55.8h-5.88V60Zm27.84.72c10.8,0,17.76-7.62,17.76-21.66S263.58,17.4,252.78,17.4s-17.76,7.62-17.76,21.66S241.98,60.72,252.78,60.72Zm0-4.5c-7.26,0-12.36-5.4-12.36-13.68V35.58c0-8.28,5.1-13.68,12.36-13.68s12.36,5.4,12.36,13.68v6.96C265.14,50.82,260.04,56.22,252.78,56.22ZM308.04,60h5.82V18.12h-4.92V52.98h-.18l-5.04-9.3-15.3-25.56H282.6V60h4.92V25.14h.18l5.04,9.3Zm31.74.72c9,0,14.4-4.92,14.4-12.6,0-6.24-3.54-9.84-11.7-11.7l-3.42-.78c-5.28-1.2-7.86-3-7.86-6.96,0-4.5,3.3-6.84,8.64-6.84A11.817,11.817,0,0,1,350.16,27l3.78-2.76c-3.12-4.44-7.56-6.84-13.86-6.84-8.22,0-13.86,4.02-13.86,11.46,0,6.42,4.2,9.78,11.82,11.52l3.42.78c5.52,1.26,7.74,3.24,7.74,7.2,0,4.8-3.24,7.92-9.24,7.92-4.86,0-8.34-2.1-11.28-6l-3.72,3.12A17.348,17.348,0,0,0,339.78,60.72Z" transform="translate(291 273)" fill="#707070"/>
    <path id="iconmonstr-party-14" d="M46.574,44.071H17.119c-1.333,3.061-2.508,5.978-3.431,8.673A14.792,14.792,0,0,0,22.84,71.537l.1.035A14.818,14.818,0,0,0,41.707,62.35a170.233,170.233,0,0,0,4.867-18.279M19.35,39.135H47.616c1.042-5.124,2.009-10.386,2.917-15.5l-20-6.852C26.483,24.622,22.584,32.2,19.35,39.135m36.776-18.8c-2.819,16.147-5.85,32.249-9.754,43.622A19.651,19.651,0,0,1,23.684,76.838L17.721,94.214c-1.372,4.142,2.5,7.775,6.96,10.139l-1.338,3.89L0,100.237l1.244-3.628c5.282.582,10.376.02,11.808-3.989L19.029,75.2A19.592,19.592,0,0,1,9.019,51.14c3.85-11.215,11.561-25.812,19.089-40.414l28.018,9.606Z" transform="translate(195 219.999)" fill="#707070" fill-rule="evenodd"/>
  </g>
</svg>
